<svg xmlns="http://www.w3.org/2000/svg" width="24" height="24" viewBox="0 0 1025 1034"><path fill="#fdbf2d" stroke="#000" stroke-width="20" d="M435 1030c-211-12-374-59-421-122-8-11-14-27-14-37s7-26 15-38c23-30 87-62 167-84 44-11 119-24 166-29l14-1 1 7 3 26 4 25c1 6 0 6-13 7-39 4-103 18-136 30-37 14-69 32-86 49l-8 8 8 9c33 33 107 62 197 75 59 9 91 11 181 11s121-2 181-11c52-8 104-22 139-38 20-9 46-26 57-38l8-8-12-11c-37-34-106-60-199-73l-30-5v-6l7-57c1-1 55 6 88 11 154 26 255 73 271 127 23 80-145 152-399 171-38 2-151 4-189 2zm14-127-19-160-20-159-45-1h-45V307l12-6c48-24 109-36 181-36s132 12 180 36l12 6v276h-45l-45 1-19 159-19 159-64 1-65-1zm41-708c-17-4-31-12-45-26A95 95 0 1 1 598 59c19 38 12 81-18 110a93 93 0 0 1-90 26z"/></svg>